<svg xmlns="http://www.w3.org/2000/svg" viewBox="0 0 1130 360"><defs><style>.cls-1{fill:#8c9899;}.cls-2{fill:#dd1f29;}</style></defs><g id="Layer_2" data-name="Layer 2"><g id="Layer_1-2" data-name="Layer 1"><path class="cls-1" d="M515,71.07h32.29q10.55,0,15.8,5t5.25,14.28q0,9.51-5.73,14.87t-17.47,5.36H534.51v23.33H515Zm19.51,26.8h4.76q5.61,0,7.89-2a6.31,6.31,0,0,0,2.27-5,7,7,0,0,0-2-5c-1.32-1.38-3.79-2.06-7.42-2.06h-5.53Z"/><path class="cls-1" d="M648.67,123.55h-22l-3.06,10.38H603.73l23.62-62.86h21.19l23.62,62.86H651.82Zm-4-13.59-6.94-22.6L630.84,110Z"/><path class="cls-1" d="M706,71.07h59V86.59H745.21v47.34H725.79V86.59H706Z"/><path class="cls-1" d="M812,71.07H831.4v22h21.22v-22h19.51v62.86H852.62V108.5H831.4v25.43H812Z"/><path class="cls-1" d="M968.32,71.07h59V86.59h-19.81v47.34H988.13V86.59H968.32Z"/><path class="cls-1" d="M1054.87,102.54q0-15.39,8.58-24T1087.33,70q15.69,0,24.18,8.43T1120,102q0,11-3.71,18.07a26.44,26.44,0,0,1-10.72,11q-7,3.91-17.47,3.92-10.63,0-17.6-3.39a26.49,26.49,0,0,1-11.3-10.72Q1054.88,113.57,1054.87,102.54Zm19.42.09q0,9.51,3.54,13.68a12,12,0,0,0,9.63,4.15q6.26,0,9.69-4.07t3.43-14.62q0-8.88-3.58-13a12.25,12.25,0,0,0-9.71-4.09,11.8,11.8,0,0,0-9.44,4.16Q1074.3,93,1074.29,102.63Z"/><path class="cls-1" d="M682.54,287.57l-10.92-30.64H633.47l-11.21,30.64H608.08l38.15-100.14h13.9l36.46,100.14ZM653,203.89l-15.32,41.83h29.93Z"/><path class="cls-1" d="M720.05,287.57V187.43h13.6l52.59,78.62V187.43H799V287.57H785.36l-52.6-78.69v78.69Z"/><path class="cls-1" d="M822.9,287.57l38.46-100.14h14.28l41,100.14h-15.1l-11.68-30.33H848l-11,30.33Zm28.9-41.12h34L875.3,218.71q-4.78-12.63-7.11-20.76a127.28,127.28,0,0,1-5.39,19.12Z"/><path class="cls-1" d="M939.91,287.57V187.43h34.5q11.69,0,17.83,1.43a33.86,33.86,0,0,1,14.69,7.18,40.72,40.72,0,0,1,11.85,17.11,67.11,67.11,0,0,1,3.93,23.8,69.76,69.76,0,0,1-2.67,20.22,48.85,48.85,0,0,1-6.83,14.59,36.32,36.32,0,0,1-9.12,9.08,36.89,36.89,0,0,1-12,5,68.16,68.16,0,0,1-16.09,1.71Zm13.26-11.82h21.38q9.9,0,15.54-1.84a22.28,22.28,0,0,0,9-5.19,31.59,31.59,0,0,0,7.34-12.67,61.79,61.79,0,0,0,2.63-19.3q0-15.72-5.15-24.15t-12.54-11.3q-5.33-2.06-17.14-2.05h-21Z"/><path class="cls-1" d="M1036.28,287.57l38.46-100.14H1089l41,100.14h-15.1l-11.68-30.33h-41.87l-11,30.33Zm28.89-41.12h33.95l-10.45-27.74q-4.79-12.63-7.1-20.76a128.52,128.52,0,0,1-5.4,19.12Z"/><path class="cls-1" d="M576.33,252.67l13.43,3.39q-4.21,16.56-15.2,25.25T547.72,290q-16.41,0-26.7-6.68T505.37,264A69.07,69.07,0,0,1,500,236.74q0-15.87,6.06-27.67a41.55,41.55,0,0,1,17.25-17.94A50.32,50.32,0,0,1,547.93,185q15.24,0,25.63,7.76T588,214.57l-13.23,3.12q-3.52-11.08-10.25-16.14t-16.9-5.05q-11.7,0-19.56,5.61A29.56,29.56,0,0,0,517,217.17a60.47,60.47,0,0,0-3.19,19.5,61.87,61.87,0,0,0,3.78,22.61,28.07,28.07,0,0,0,11.74,14.44,32.89,32.89,0,0,0,17.24,4.78q11.29,0,19.12-6.51T576.33,252.67Z"/><polygon class="cls-2" points="314.91 322.85 425 228.04 394.28 221.64 416.04 148.61 362.27 158.86 346.91 122.99 271.38 194.73 300.83 53.81 253.46 74.31 212.5 0 171.54 74.31 124.17 53.81 153.61 194.73 78.09 122.99 62.73 158.86 8.96 148.61 30.72 221.64 0 228.04 110.09 322.85 90.89 360 185.41 338.54 91.72 235.16 66.1 260.8 42.56 179.27 124.03 202.82 98.41 228.47 199.07 319.83 207.77 141.32 171.54 141.32 212.5 67.01 253.46 141.32 217.23 141.32 225.98 320.72 327.62 228.47 302 202.82 383.46 179.27 359.93 260.8 334.31 235.16 240.44 338.74 334.11 360 314.91 322.85"/></g></g></svg>